<svg width="24" height="24" viewBox="0 0 24 24" fill="none" xmlns="http://www.w3.org/2000/svg">
<mask id="mask0" mask-type="alpha" maskUnits="userSpaceOnUse" x="0" y="0" width="24" height="24">
<path fill-rule="evenodd" clip-rule="evenodd" d="M18.5746 5.05114C16.7684 3.2448 14.3676 2.25 11.8125 2.25H11.8117C9.25781 2.25 6.85691 3.24461 5.05076 5.05061C3.24461 6.85676 2.25 9.258 2.25 11.8123C2.24963 14.3664 3.24461 16.7679 5.0508 18.574C6.85729 20.3802 9.25856 21.375 11.8129 21.375H11.8136C14.3676 21.375 16.7685 20.3804 18.5746 18.5742C20.3807 16.7679 21.3754 14.3664 21.375 11.8123C21.3754 9.25856 20.3807 6.85729 18.5746 5.05114ZM17.2485 17.2484C15.7969 18.7004 13.8666 19.5 11.8136 19.5H11.8128C9.75949 19.5 7.82884 18.7004 6.3768 17.2482C4.92443 15.7961 4.125 13.8657 4.125 11.8123C4.125 9.75896 4.9248 7.82831 6.37684 6.37646C7.8285 4.92443 9.75877 4.125 11.8129 4.125H11.8136C13.8666 4.125 15.7969 4.92461 17.2489 6.37684C18.7006 7.82888 19.5 9.75915 19.5 11.8123C19.5 13.8657 18.7006 15.7963 17.2485 17.2484ZM11.8125 7.125H11.8121C10.5604 7.125 9.3834 7.61261 8.49791 8.49791C7.61243 9.38321 7.125 10.5604 7.125 11.8125C7.125 14.3972 9.22778 16.5 11.8125 16.5H11.8129C13.065 16.5 14.2419 16.0124 15.1271 15.1271C16.0126 14.2418 16.5 13.0646 16.5 11.8125C16.5 10.5604 16.0126 9.38344 15.1271 8.4981C14.2419 7.61261 13.0646 7.125 11.8125 7.125ZM13.8014 13.8012C13.27 14.3326 12.564 14.625 11.8129 14.625H11.8125C10.2616 14.625 9 13.3634 9 11.8125C9 11.0612 9.29261 10.355 9.82399 9.82361C10.355 9.29243 11.0614 9 11.8125 9H11.8129C13.3634 9 14.625 10.2616 14.625 11.8125C14.625 12.5638 14.3324 13.27 13.8014 13.8012ZM13.125 11.8125C13.125 12.5374 12.5374 13.125 11.8125 13.125C11.0876 13.125 10.5 12.5374 10.5 11.8125C10.5 11.0876 11.0876 10.5 11.8125 10.5C12.5374 10.5 13.125 11.0876 13.125 11.8125Z" fill="black"/>
</mask>
<g mask="url(#mask0)">
<rect width="24" height="24" fill="#0077C2"/>
</g>
</svg>
