<svg width="24" height="24" viewBox="0 0 24 24" fill="none" xmlns="http://www.w3.org/2000/svg">
<mask id="mask0" mask-type="alpha" maskUnits="userSpaceOnUse" x="0" y="0" width="24" height="24">
<path d="M20.9969 10.3114C20.9969 5.2455 16.8752 1.12354 11.8091 1.12354C6.74295 1.12354 2.625 5.24501 2.625 10.311C2.625 14.5954 5.43401 18.4539 9.10118 19.7695L7.93793 23.2502H15.3053L14.148 19.7873C17.5965 18.4836 20.9969 14.5893 20.9969 10.3114ZM10.5418 21.3752L10.9347 20.1989C11.5303 20.2662 11.9463 20.2572 12.3165 20.2232L12.7014 21.3752H10.5418ZM13.5549 18.0123C9.37087 19.6413 4.50004 15.3067 4.50004 10.3109C4.50004 6.27881 7.77679 2.9985 11.8091 2.9985C15.8413 2.9985 19.1218 6.27881 19.1218 10.3109C19.1218 13.6594 16.2963 16.945 13.5549 18.0123ZM6.87004 13.576L8.51359 12.6737C6.81251 9.57577 8.74586 6.48472 11.625 6.37519V4.50274C7.20064 4.6707 4.52846 9.31181 6.87004 13.576Z" fill="black"/>
</mask>
<g mask="url(#mask0)">
<rect width="24" height="24" fill="#969696"/>
</g>
</svg>
